<svg data-name="Layer 1" xmlns="http://www.w3.org/2000/svg" viewBox="0 0 60 60"><path d="M2.64 31a.66.66 0 0 0 .07-.16 3 3 0 0 1 3.06-2.48 12.69 12.69 0 0 1 4.64.86 71.89 71.89 0 0 1 9.71 4.4l.44.22C21.82 32.4 23 31 24.29 29.55A232.21 232.21 0 0 1 41.58 11.6 55.57 55.57 0 0 1 49.86 5 10.8 10.8 0 0 1 54 3.31a.34.34 0 0 0 .11-.07h1a2.66 2.66 0 0 1 2.28 1.92v.36a4.93 4.93 0 0 1-1.66 2.66c-1.53 1.53-3.1 3-4.64 4.53A114.15 114.15 0 0 0 30 41.42a145.62 145.62 0 0 0-6.4 13.91 2.22 2.22 0 0 1-1.37 1.53h-.31a2.08 2.08 0 0 1-1.36-1.12Q19 53 17.36 50.27A74.12 74.12 0 0 0 3.27 32.63a4 4 0 0 1-.62-1.08q-.01-.27-.01-.55z" fill="#00838f"/></svg>
